<svg width="200" height="64" viewBox="0 0 200 64" fill="none" xmlns="http://www.w3.org/2000/svg">
<g clip-path="url(#clip0_43_2)">
<mask id="mask0_43_2" style="mask-type:luminance" maskUnits="userSpaceOnUse" x="0" y="0" width="200" height="64">
<path d="M200 0H0V63.7018H200V0Z" fill="white"/>
</mask>
<g mask="url(#mask0_43_2)">
<path d="M59.436 44.1172C58.6773 43.825 57.8323 44.2302 57.4632 44.9543C52.4936 54.6516 42.6533 60.6501 31.7576 60.6139C29.3325 60.6061 12.9566 60.0265 10.4341 42.7035C9.74306 37.9554 10.808 33.3392 13.4655 29.3764C13.7137 29.0057 14.2996 29.2916 14.1566 29.7141C13.3257 32.1816 12.9849 34.5816 13.032 36.4366C13.1891 42.68 15.6535 47.5192 20.5665 51.2292C23.7047 53.5977 28.0382 54.9642 32.4565 54.9784C40.9492 55.0066 48.4303 50.2962 52.4779 42.3753C52.825 41.6952 52.6648 40.8219 52.046 40.3742C51.2543 39.8025 50.1769 40.0852 49.7528 40.9193C46.1984 47.915 39.8968 51.914 32.466 51.8904C28.7011 51.8778 25.0414 50.7391 22.4262 48.7648C18.2561 45.6156 16.2519 41.6732 16.1184 36.3596C16.0886 35.1533 16.2927 33.4256 16.8315 31.5518C16.9571 31.1151 17.5917 31.2031 17.587 31.657C17.576 33.0486 17.7833 34.4936 18.2844 35.9858C20.2917 41.9575 25.8629 46.1763 32.1628 46.0569C37.2455 45.9596 42.0062 43.2439 44.4361 38.568C44.802 37.8643 44.6732 36.9612 44.0277 36.4978C43.2376 35.9324 42.1664 36.2182 41.7439 37.0491C39.8214 40.8344 36.1256 42.969 31.8864 42.9721C25.9304 42.9768 20.8964 38.1329 20.6812 32.18C20.4519 25.7984 25.5864 20.5461 31.9131 20.5665C36.1492 20.5806 39.9659 22.9366 41.879 26.7172C42.2324 27.4162 43.0774 27.7774 43.8109 27.5026C44.6858 27.1743 45.0628 26.1738 44.6544 25.3617C43.5738 23.2084 42.0078 21.4194 40.1293 20.0906C40.1261 20.089 40.1246 20.0859 40.1214 20.0827C37.0884 17.8272 33.8152 17.2728 32.8366 17.1236C25.9681 16.0759 19.343 17.9105 13.7938 23.7408C11.5446 26.1047 9.12265 30.1869 8.07344 33.6957C7.90223 34.2659 7.07292 34.09 7.13731 33.4994C7.34936 31.5722 7.77501 29.7047 8.42055 27.9109C10.1718 23.0387 13.1153 19.1513 17.4173 16.0225C24.055 11.1959 32.1471 11.6812 32.1817 11.6828C39.6219 11.8335 46.3444 15.9927 49.7968 22.8659C50.2161 23.7031 51.2936 23.989 52.0884 23.4204C52.7088 22.9759 52.8737 22.1042 52.5297 21.4241C48.5512 13.5503 40.7842 8.64037 32.2414 8.59325C31.3948 8.54613 22.9461 8.1833 15.6016 13.5236C10.8504 16.9775 7.45616 21.4665 5.51481 26.8633C4.69335 29.1486 4.18288 31.5345 3.98183 33.9942C3.941 34.4874 3.20435 34.4795 3.16823 33.9847C3.1054 33.1429 3.08027 32.2931 3.09283 31.4324C3.30802 16.4073 15.3158 3.90008 30.3236 3.12731C41.8366 2.53516 52.3648 8.68592 57.5229 18.8654C57.8904 19.5895 58.7323 19.9995 59.4925 19.7105C60.3642 19.3806 60.7365 18.3817 60.3297 17.5712C54.5747 6.11787 42.6926 -0.763247 29.744 0.0676383C13.8111 1.09015 0.958291 14.0655 0.0520131 30.0062C-0.836988 45.6627 9.66296 59.0872 24.0314 62.7265C24.3911 62.8254 24.765 62.9008 25.1325 62.9856C25.2142 63.0029 25.2958 63.0233 25.3775 63.0406C27.1414 63.4286 28.8236 63.6249 30.7869 63.6862C30.801 63.6862 31.6194 63.7019 31.745 63.7019C43.8486 63.7411 54.7742 57.0579 60.2606 46.2595C60.6721 45.4506 60.303 44.4501 59.4328 44.1156L59.436 44.1172Z" fill="white"/>
<path d="M64.4944 32.0449C64.4944 29.4785 66.2519 27.3863 69.4341 27.3863C70.0844 27.3863 71.1038 27.545 72.1231 28.1607C72.4043 28.3193 72.4404 28.5832 72.2645 28.8282L72.142 28.9868C71.9661 29.2334 71.7729 29.2507 71.4917 29.1094C70.6483 28.635 69.8221 28.5816 69.4875 28.5816C67.3247 28.5816 65.8656 30.0235 65.8483 31.9743C65.8656 33.9266 67.3247 35.3496 69.4875 35.3496C69.8221 35.3496 70.6483 35.2978 71.4917 34.8219C71.7729 34.6821 71.9833 34.7167 72.142 34.9633L72.2472 35.1219C72.4231 35.3685 72.3352 35.6842 71.8954 35.9119C70.964 36.4224 70.0326 36.5449 69.4341 36.5449C66.3226 36.5449 64.5116 34.5407 64.4944 32.0449Z" fill="white"/>
<path d="M74.2688 24.6612C74.2688 24.0816 74.6724 23.6591 75.2363 23.6591C75.8002 23.6591 76.2038 24.0816 76.2038 24.6612C76.2038 25.2408 75.7813 25.646 75.2363 25.646C74.6913 25.646 74.2688 25.2235 74.2688 24.6612ZM74.5672 35.8774V28.0539C74.5672 27.7727 74.7431 27.5795 75.0415 27.5795H75.4468C75.7279 27.5795 75.9038 27.7554 75.9038 28.0539V35.8774C75.9038 36.1758 75.7279 36.3517 75.4468 36.3517H75.0415C74.7431 36.3517 74.5672 36.1758 74.5672 35.8774Z" fill="white"/>
<path d="M78.8047 35.8774V28.0539C78.8047 27.7727 78.9806 27.5795 79.2617 27.5795H79.6654C79.9638 27.5795 80.1397 27.7554 80.1397 28.0539V29.7062C80.4743 28.2816 81.423 27.3848 82.7062 27.3848C82.8114 27.3848 83.0046 27.402 83.1287 27.4209C83.3926 27.4727 83.446 27.6848 83.446 27.9486V28.3177C83.446 28.6523 83.3235 28.7921 83.0942 28.723C82.9355 28.7057 82.7596 28.6884 82.6198 28.6884C81.4952 28.6884 80.1586 29.6732 80.1413 33.0125V35.879C80.1413 36.1774 79.9654 36.3533 79.667 36.3533H79.2633C78.9821 36.3533 78.8062 36.1774 78.8062 35.879L78.8047 35.8774Z" fill="white"/>
<path d="M84.0271 32.0449C84.0271 29.4785 85.7847 27.3863 88.9669 27.3863C89.6172 27.3863 90.6365 27.545 91.6575 28.1607C91.9386 28.3193 91.9732 28.5832 91.7973 28.8282L91.6747 28.9868C91.4988 29.2334 91.3056 29.2507 91.0245 29.1094C90.181 28.635 89.3549 28.5816 89.0203 28.5816C86.8575 28.5816 85.3983 30.0235 85.3811 31.9743C85.3983 33.9266 86.8575 35.3496 89.0203 35.3496C89.3549 35.3496 90.181 35.2978 91.0245 34.8219C91.3056 34.6821 91.5161 34.7167 91.6747 34.9633L91.78 35.1219C91.9559 35.3685 91.8679 35.6842 91.4282 35.9119C90.4967 36.4224 89.5653 36.5449 88.9669 36.5449C85.8554 36.5449 84.0444 34.5407 84.0271 32.0449Z" fill="white"/>
<path d="M94.1001 35.8774V24.1162C94.1001 23.8178 94.276 23.6418 94.5744 23.6418H94.9796C95.2608 23.6418 95.4367 23.8178 95.4367 24.1162V35.8774C95.4367 36.1758 95.2608 36.3517 94.9796 36.3517H94.5744C94.276 36.3517 94.1001 36.1758 94.1001 35.8774Z" fill="white"/>
<path d="M97.6514 32.0088C97.6514 29.4596 99.6383 27.3848 102.344 27.3848C104.488 27.3848 106.494 28.668 106.722 31.4811C106.775 31.7795 106.58 31.9554 106.265 31.9554H99.0037C98.8812 33.9062 100.409 35.3481 102.572 35.3481C103.503 35.3481 104.4 35.0842 105.209 34.4701C105.437 34.3114 105.666 34.3287 105.859 34.5219L106.001 34.6633C106.194 34.8737 106.194 35.1549 105.896 35.4015C104.876 36.2622 103.681 36.5449 102.574 36.5449C99.5503 36.5449 97.6514 34.4873 97.6514 32.0088ZM105.369 30.9188C104.964 29.1078 103.593 28.58 102.38 28.58C101.009 28.58 99.6382 29.301 99.1278 30.9188H105.368H105.369Z" fill="white"/>
<path d="M113.281 24.6612C113.281 24.0816 113.686 23.6591 114.248 23.6591C114.811 23.6591 115.214 24.0816 115.214 24.6612C115.214 25.2408 114.793 25.646 114.248 25.646C113.703 25.646 113.281 25.2235 113.281 24.6612ZM113.579 35.8774V28.0539C113.579 27.7727 113.755 27.5795 114.054 27.5795H114.457C114.738 27.5795 114.914 27.7554 114.914 28.0539V35.8774C114.914 36.1758 114.738 36.3517 114.457 36.3517H114.054C113.755 36.3517 113.579 36.1758 113.579 35.8774Z" fill="white"/>
<path d="M117.817 35.8774V28.0539C117.817 27.7727 117.993 27.5795 118.274 27.5795H118.679C118.978 27.5795 119.154 27.7554 119.154 28.0539V29.4423C119.628 28.0539 120.911 27.3848 122.212 27.3848C124.075 27.3848 125.692 28.4748 125.692 31.3758V35.8758C125.692 36.1742 125.516 36.3502 125.218 36.3502H124.813C124.514 36.3502 124.338 36.1742 124.338 35.8758V31.3758C124.338 29.2491 123.231 28.58 122.124 28.58C121.156 28.58 119.171 29.2649 119.154 32.0952V35.8742C119.154 36.1727 118.978 36.3486 118.679 36.3486H118.274C117.993 36.3486 117.817 36.1727 117.817 35.8742V35.8774Z" fill="white"/>
<path d="M128.402 35.8774V28.0539C128.402 27.7727 128.578 27.5795 128.859 27.5795H129.264C129.563 27.5795 129.738 27.7554 129.738 28.0539V29.4423C130.213 28.0539 131.496 27.3848 132.797 27.3848C134.659 27.3848 136.277 28.4748 136.277 31.3758V35.8758C136.277 36.1742 136.101 36.3502 135.803 36.3502H135.398C135.099 36.3502 134.923 36.1742 134.923 35.8758V31.3758C134.923 29.2491 133.816 28.58 132.709 28.58C131.741 28.58 129.756 29.2649 129.738 32.0952V35.8742C129.738 36.1727 129.563 36.3486 129.264 36.3486H128.859C128.578 36.3486 128.402 36.1727 128.402 35.8742V35.8774Z" fill="white"/>
<path d="M138.281 31.9743C138.281 29.4612 140.356 27.3863 142.869 27.3863C145.382 27.3863 147.493 29.4785 147.493 31.9743C147.493 34.4701 145.418 36.5449 142.869 36.5449C140.32 36.5449 138.281 34.5235 138.281 31.9743ZM146.139 31.9915C146.139 30.1287 144.68 28.5816 142.869 28.5816C141.058 28.5816 139.635 30.1287 139.635 31.9915C139.635 33.8544 141.094 35.3496 142.869 35.3496C144.644 35.3496 146.139 33.8387 146.139 31.9915Z" fill="white"/>
<path d="M151.626 35.9653L148.532 28.1245C148.409 27.79 148.549 27.5795 148.901 27.5795H149.34C149.604 27.5795 149.78 27.702 149.868 27.9659L152.523 34.858L155.177 27.9659C155.265 27.702 155.441 27.5795 155.722 27.5795H156.145C156.496 27.5795 156.636 27.79 156.514 28.1245L153.437 35.9653C153.331 36.2292 153.138 36.3517 152.874 36.3517H152.171C151.907 36.3517 151.714 36.2292 151.626 35.9653Z" fill="white"/>
<path d="M157.621 31.9743C157.621 29.4612 159.308 27.3863 161.998 27.3863C163.423 27.3863 164.653 28.002 165.445 29.3198V28.0539C165.445 27.7727 165.603 27.5795 165.902 27.5795H166.305C166.604 27.5795 166.78 27.7554 166.78 28.0539V35.8774C166.78 36.1758 166.604 36.3517 166.305 36.3517H165.902C165.603 36.3517 165.445 36.1758 165.445 35.8774V34.6287C164.653 35.9653 163.404 36.5449 161.998 36.5449C159.344 36.5449 157.621 34.4873 157.621 31.9743ZM165.462 31.9743C165.462 30.0408 164.127 28.5816 162.14 28.5816C160.153 28.5816 158.958 30.1287 158.958 31.9743C158.958 33.8198 160.136 35.3496 162.157 35.3496C164.179 35.3496 165.462 33.9439 165.462 31.9743Z" fill="white"/>
<path d="M169.998 33.6093V28.6523H168.803C168.609 28.6523 168.521 28.5643 168.521 28.3711V27.8607C168.521 27.6848 168.609 27.5795 168.803 27.5795H169.998L170.262 25.3287C170.298 25.0649 170.455 24.9424 170.702 24.9424H170.931C171.195 24.9424 171.352 25.0837 171.352 25.3476V27.5795H173.901C174.077 27.5795 174.182 27.6848 174.182 27.8607V28.3711C174.182 28.5643 174.077 28.6523 173.901 28.6523H171.352V33.6973C171.352 34.9805 171.95 35.3669 172.618 35.3669C173.285 35.3669 173.866 34.946 173.866 34.2062C173.866 34.1528 173.866 34.0303 173.83 33.8889C173.813 33.6784 173.882 33.5716 174.077 33.5716H174.693C174.851 33.5716 174.974 33.6423 175.008 33.801C175.079 34.0821 175.079 34.3805 175.079 34.3805C175.079 35.5931 174.218 36.5434 172.618 36.5434C171.3 36.5434 169.998 35.9104 169.998 33.6078V33.6093Z" fill="white"/>
<path d="M176.485 24.6612C176.485 24.0816 176.89 23.6591 177.452 23.6591C178.015 23.6591 178.42 24.0816 178.42 24.6612C178.42 25.2408 177.997 25.646 177.452 25.646C176.907 25.646 176.485 25.2235 176.485 24.6612ZM176.783 35.8774V28.0539C176.783 27.7727 176.959 27.5795 177.258 27.5795H177.663C177.944 27.5795 178.12 27.7554 178.12 28.0539V35.8774C178.12 36.1758 177.944 36.3517 177.663 36.3517H177.258C176.959 36.3517 176.783 36.1758 176.783 35.8774Z" fill="white"/>
<path d="M180.319 31.9743C180.319 29.4612 182.394 27.3863 184.907 27.3863C187.42 27.3863 189.531 29.4785 189.531 31.9743C189.531 34.4701 187.456 36.5449 184.907 36.5449C182.358 36.5449 180.319 34.5235 180.319 31.9743ZM188.177 31.9915C188.177 30.1287 186.718 28.5816 184.907 28.5816C183.096 28.5816 181.673 30.1287 181.673 31.9915C181.673 33.8544 183.132 35.3496 184.907 35.3496C186.682 35.3496 188.177 33.8387 188.177 31.9915Z" fill="white"/>
<path d="M191.676 35.8774V28.0539C191.676 27.7727 191.852 27.5795 192.133 27.5795H192.539C192.837 27.5795 193.013 27.7554 193.013 28.0539V29.4423C193.487 28.0539 194.771 27.3848 196.071 27.3848C197.934 27.3848 199.552 28.4748 199.552 31.3758V35.8758C199.552 36.1742 199.376 36.3502 199.077 36.3502H198.672C198.374 36.3502 198.198 36.1742 198.198 35.8758V31.3758C198.198 29.2491 197.09 28.58 195.983 28.58C195.016 28.58 193.03 29.2649 193.013 32.0952V35.8742C193.013 36.1727 192.837 36.3486 192.539 36.3486H192.133C191.852 36.3486 191.676 36.1727 191.676 35.8742V35.8774Z" fill="white"/>
</g>
</g>
<defs>
<clipPath id="clip0_43_2">
<rect width="200" height="64" fill="white"/>
</clipPath>
</defs>
</svg>
